<?xml version="1.0" encoding="UTF-8" standalone="no"?>
<svg
   viewBox="0 0 16 16"
   version="1.1"
   id="svg1"
   sodipodi:docname="assistant_toggle.svg"
   inkscape:version="1.3.2 (091e20ef0f, 2023-11-25, custom)"
   xmlns:inkscape="http://www.inkscape.org/namespaces/inkscape"
   xmlns:sodipodi="http://sodipodi.sourceforge.net/DTD/sodipodi-0.dtd"
   xmlns="http://www.w3.org/2000/svg"
   xmlns:svg="http://www.w3.org/2000/svg">
  <defs
     id="defs1" />
  <sodipodi:namedview
     id="namedview1"
     pagecolor="#ffffff"
     bordercolor="#666666"
     borderopacity="1.0"
     inkscape:showpageshadow="2"
     inkscape:pageopacity="0.0"
     inkscape:pagecheckerboard="0"
     inkscape:deskcolor="#d1d1d1"
     inkscape:zoom="14.75"
     inkscape:cx="8"
     inkscape:cy="7.9661017"
     inkscape:window-width="1366"
     inkscape:window-height="716"
     inkscape:window-x="0"
     inkscape:window-y="31"
     inkscape:window-maximized="1"
     inkscape:current-layer="svg1" />
  <g
     transform="matrix(0.70703849,0,0,0.70703849,-501.78007,227.88381)"
     style="display:inline"
     id="g1">
    <path
       d="m 721.57,-306.82 c -0.04,-1.451 0.287,-2.859 1.672,-3.858 1.459,-1.128 2.862,-2.539 2.715,-4.204 -0.037,-1.606 -1.918,-2.866 -3.95,-3.046 -2.282,-0.312 -5.05,0.463 -5.813,2.234 -0.386,0.86 -0.026,2.407 1.275,2.407 0.764,0 1.113,-0.489 1.168,-0.937 0.044,-0.338 -0.096,-0.639 -0.18,-0.919 -0.092,-0.32 0.309,-0.933 0.746,-1.187 0.367,-0.209 0.75,-0.279 0.805,-0.294 1.315,-0.312 2.624,0.378 3.167,1.22 0.548,0.845 -0.055,2.12 -0.915,3.362 -0.867,1.242 -1.793,2.653 -1.789,4.152 0,0.57 -0.052,0.764 -0.015,0.996 0.029,0.184 0.643,0.162 1.113,0.074 z m -0.599,1.955 c -1.257,-0.066 -2.124,1.345 -1.371,2.245 0.672,0.996 2.565,0.75 2.884,-0.375 0.338,-0.878 -0.47,-1.885 -1.514,-1.87 z"
       style="fill:#bebebe;fill-opacity:1"
       id="path1" />
  </g>
</svg>
